<svg width="219" height="41" viewBox="0 0 219 41" fill="none" xmlns="http://www.w3.org/2000/svg">
<path d="M11.4549 31.4242C9.45813 31.4242 7.66647 30.9318 6.07996 29.9471C4.5208 28.9624 3.27621 27.622 2.34619 25.9261C1.44352 24.2302 0.992188 22.3291 0.992188 20.2229C0.992188 18.1166 1.44352 16.2156 2.34619 14.5196C3.27621 12.8237 4.5208 11.4834 6.07996 10.4987C7.66647 9.51394 9.45813 9.02157 11.4549 9.02157C13.3697 9.02157 15.1067 9.4182 16.6658 10.2115C18.2523 10.9774 19.4559 12.0305 20.2765 13.3708L17.9378 16.2429C17.5001 15.6138 16.9393 15.0394 16.2555 14.5196C15.5717 13.9999 14.8468 13.5896 14.0809 13.2887C13.315 12.9878 12.5764 12.8374 11.8653 12.8374C10.5523 12.8374 9.37607 13.1656 8.33663 13.8221C7.32455 14.4513 6.51762 15.3266 5.91584 16.4481C5.31406 17.5696 5.01317 18.8278 5.01317 20.2229C5.01317 21.6179 5.32774 22.8762 5.95687 23.9977C6.586 25.0918 7.42029 25.9671 8.45972 26.6236C9.49916 27.2801 10.648 27.6084 11.9063 27.6084C12.6448 27.6084 13.356 27.4853 14.0399 27.2391C14.7511 26.9929 15.4349 26.6236 16.0914 26.1313C16.7479 25.6389 17.3633 25.0371 17.9378 24.3259L20.2765 27.198C19.4012 28.429 18.1429 29.441 16.5017 30.2343C14.8878 31.0276 13.2056 31.4242 11.4549 31.4242Z" fill="white"/>
<path d="M33.946 31.4242C31.8398 31.4242 29.9524 30.9455 28.2838 29.9881C26.6426 29.0034 25.3433 27.6767 24.3859 26.0082C23.4286 24.3122 22.9499 22.3838 22.9499 20.2229C22.9499 18.0619 23.4286 16.1472 24.3859 14.4786C25.3433 12.7827 26.6426 11.456 28.2838 10.4987C29.9524 9.51394 31.8398 9.02157 33.946 9.02157C36.0249 9.02157 37.8849 9.51394 39.5262 10.4987C41.1947 11.456 42.5077 12.7827 43.4651 14.4786C44.4225 16.1472 44.9012 18.0619 44.9012 20.2229C44.9012 22.3838 44.4225 24.3122 43.4651 26.0082C42.5077 27.6767 41.1947 29.0034 39.5262 29.9881C37.8849 30.9455 36.0249 31.4242 33.946 31.4242ZM33.946 27.5673C35.2316 27.5673 36.3805 27.2528 37.3926 26.6236C38.4047 25.9671 39.1979 25.0918 39.7723 23.9977C40.3468 22.8762 40.6203 21.6179 40.593 20.2229C40.6203 18.8005 40.3468 17.5422 39.7723 16.4481C39.1979 15.3266 38.4047 14.4513 37.3926 13.8221C36.3805 13.193 35.2316 12.8784 33.946 12.8784C32.6604 12.8784 31.4979 13.2067 30.4584 13.8632C29.4464 14.4923 28.6531 15.3676 28.0787 16.4891C27.5043 17.5833 27.2307 18.8278 27.2581 20.2229C27.2307 21.6179 27.5043 22.8762 28.0787 23.9977C28.6531 25.0918 29.4464 25.9671 30.4584 26.6236C31.4979 27.2528 32.6604 27.5673 33.946 27.5673Z" fill="white"/>
<path d="M49.4241 31.0139V9.47291H53.6913V14.0683L52.9117 14.5607C53.1305 13.8495 53.4725 13.1656 53.9375 12.5092C54.4298 11.8527 55.0179 11.2782 55.7018 10.7859C56.413 10.2662 57.1652 9.85586 57.9584 9.55497C58.779 9.25408 59.6133 9.10363 60.4613 9.10363C61.6922 9.10363 62.7727 9.30878 63.7027 9.71909C64.6327 10.1294 65.3986 10.7448 66.0004 11.5655C66.6022 12.3861 67.0398 13.4118 67.3134 14.6427L66.6569 14.4786L66.9441 13.7811C67.245 13.152 67.6553 12.5639 68.175 12.0168C68.7221 11.4424 69.3375 10.9363 70.0214 10.4987C70.7052 10.061 71.4301 9.71909 72.196 9.47291C72.9619 9.22672 73.7141 9.10363 74.4527 9.10363C76.0665 9.10363 77.3932 9.43188 78.4326 10.0884C79.4994 10.7448 80.2927 11.7433 80.8124 13.0836C81.3595 14.4239 81.633 16.0925 81.633 18.0893V31.0139H77.3658V18.3355C77.3658 17.1046 77.2017 16.1062 76.8735 15.3403C76.5726 14.547 76.1076 13.9589 75.4784 13.5759C74.8493 13.193 74.0424 13.0015 73.0576 13.0015C72.2917 13.0015 71.5669 13.1383 70.883 13.4118C70.2265 13.658 69.6521 14.0136 69.1597 14.4786C68.6674 14.9436 68.2844 15.4907 68.0109 16.1198C67.7374 16.7216 67.6006 17.3918 67.6006 18.1303V31.0139H63.3334V18.2534C63.3334 17.1319 63.1693 16.1882 62.8411 15.4223C62.5128 14.6291 62.0341 14.0273 61.405 13.617C60.7759 13.2067 60.01 13.0015 59.1073 13.0015C58.3414 13.0015 57.6302 13.1383 56.9737 13.4118C56.3172 13.658 55.7428 14.0136 55.2504 14.4786C54.7581 14.9163 54.3751 15.4497 54.1016 16.0788C53.828 16.6806 53.6913 17.3371 53.6913 18.0483V31.0139H49.4241Z" fill="white"/>
<path d="M87.291 40.0406V9.47291H91.5582V14.3966L90.9017 14.0273C91.0658 13.2067 91.5308 12.4271 92.2967 11.6885C93.0626 10.9226 93.9927 10.3072 95.0868 9.84218C96.2083 9.34982 97.3572 9.10363 98.5334 9.10363C100.475 9.10363 102.199 9.58232 103.703 10.5397C105.208 11.4971 106.398 12.81 107.273 14.4786C108.148 16.1472 108.586 18.0619 108.586 20.2229C108.586 22.3565 108.148 24.2712 107.273 25.9671C106.425 27.6357 105.249 28.9624 103.744 29.9471C102.24 30.9045 100.544 31.3832 98.6565 31.3832C97.3982 31.3832 96.181 31.137 95.0048 30.6446C93.8285 30.1249 92.8301 29.4684 92.0095 28.6751C91.1889 27.8819 90.6829 27.0613 90.4914 26.2133L91.5582 25.6389V40.0406H87.291ZM97.9589 27.4853C99.2172 27.4853 100.339 27.1707 101.323 26.5416C102.308 25.9124 103.088 25.0508 103.662 23.9566C104.237 22.8625 104.524 21.6179 104.524 20.2229C104.524 18.8278 104.237 17.5969 103.662 16.5301C103.115 15.436 102.349 14.5744 101.364 13.9452C100.38 13.3161 99.2446 13.0015 97.9589 13.0015C96.6733 13.0015 95.5382 13.3161 94.5534 13.9452C93.5687 14.547 92.7891 15.395 92.2147 16.4891C91.6403 17.5833 91.353 18.8278 91.353 20.2229C91.353 21.6179 91.6403 22.8625 92.2147 23.9566C92.7891 25.0508 93.5687 25.9124 94.5534 26.5416C95.5382 27.1707 96.6733 27.4853 97.9589 27.4853Z" fill="white"/>
<path d="M113.258 31.0139V0.651367H117.484V31.0139H113.258Z" fill="white"/>
<path d="M126.483 40.4509L130.832 30.3984L130.873 33.7629L120.123 9.47291H125.047L131.776 25.3106C131.912 25.5842 132.077 26.0082 132.268 26.5826C132.46 27.1297 132.624 27.6767 132.76 28.2238L131.694 28.47C131.912 27.8956 132.118 27.3211 132.309 26.7467C132.528 26.1723 132.733 25.5979 132.925 25.0234L138.546 9.47291H143.551L134.689 31.0139L131.037 40.4509H126.483Z" fill="white"/>
<path d="M149.38 31.0139V3.97483H153.606V31.0139H149.38ZM144.908 13.5759V9.47291H158.612V13.5759H144.908Z" fill="white"/>
<path d="M172.312 31.4242C170.097 31.4242 168.127 30.9592 166.404 30.0291C164.708 29.0718 163.368 27.7725 162.383 26.1313C161.425 24.49 160.947 22.6026 160.947 20.4691C160.947 18.7731 161.22 17.2277 161.767 15.8326C162.314 14.4376 163.067 13.234 164.024 12.2219C165.009 11.1825 166.171 10.3893 167.512 9.84218C168.879 9.26776 170.356 8.98054 171.943 8.98054C173.338 8.98054 174.637 9.25408 175.841 9.80115C177.044 10.3209 178.084 11.0457 178.959 11.9758C179.862 12.9058 180.546 14.0136 181.011 15.2992C181.503 16.5575 181.735 17.9389 181.708 19.4433L181.667 21.2486H164.065L163.121 17.8841H178.015L177.4 18.5817V17.5969C177.318 16.6943 177.017 15.8873 176.497 15.1761C175.978 14.4649 175.321 13.9042 174.528 13.4939C173.735 13.0836 172.873 12.8784 171.943 12.8784C170.466 12.8784 169.221 13.1656 168.209 13.7401C167.197 14.2871 166.431 15.1078 165.911 16.2019C165.392 17.2687 165.132 18.5953 165.132 20.1818C165.132 21.6863 165.446 22.9993 166.076 24.1208C166.705 25.2149 167.594 26.0629 168.743 26.6647C169.891 27.2664 171.218 27.5673 172.722 27.5673C173.789 27.5673 174.774 27.3895 175.677 27.0339C176.607 26.6783 177.605 26.0355 178.672 25.1055L180.805 28.1007C180.149 28.7572 179.342 29.3316 178.385 29.824C177.455 30.3164 176.456 30.713 175.389 31.0139C174.35 31.2874 173.324 31.4242 172.312 31.4242Z" fill="white"/>
<path d="M190.158 24.2849L189.953 19.6895L200.251 9.47291H205.955L190.158 24.2849ZM186.301 31.0139V0.651367H190.527V31.0139H186.301ZM200.826 31.0139L192.702 21.5359L195.697 18.7868L206.242 31.0139H200.826Z" fill="white"/>
<path d="M216.975 25.6393C216.385 25.6393 215.906 26.1176 215.906 26.7076C215.906 27.2976 216.385 27.7759 216.975 27.7759C217.565 27.7759 218.043 27.2976 218.043 26.7076C218.043 26.1176 217.565 25.6393 216.975 25.6393Z" fill="#E94E35"/>
<path d="M216.975 22.4664C216.385 22.4664 215.906 22.9447 215.906 23.5347C215.906 24.1247 216.385 24.603 216.975 24.603C217.565 24.603 218.043 24.1247 218.043 23.5347C218.043 22.9447 217.565 22.4664 216.975 22.4664Z" fill="#E94E35"/>
<path d="M216.975 28.8766C216.385 28.8766 215.906 29.3549 215.906 29.9449C215.906 30.5349 216.385 31.0132 216.975 31.0132C217.565 31.0132 218.043 30.5349 218.043 29.9449C218.043 29.3549 217.565 28.8766 216.975 28.8766Z" fill="#E94E35"/>
<path d="M213.803 25.6393C213.213 25.6393 212.734 26.1176 212.734 26.7076C212.734 27.2976 213.213 27.7759 213.803 27.7759C214.393 27.7759 214.871 27.2976 214.871 26.7076C214.871 26.1176 214.393 25.6393 213.803 25.6393Z" fill="#E94E35"/>
<path d="M213.803 22.4664C213.213 22.4664 212.734 22.9447 212.734 23.5347C212.734 24.1247 213.213 24.603 213.803 24.603C214.393 24.603 214.871 24.1247 214.871 23.5347C214.871 22.9447 214.393 22.4664 213.803 22.4664Z" fill="#E94E35"/>
<path d="M216.975 19.2941C216.385 19.2941 215.906 19.7724 215.906 20.3624C215.906 20.9524 216.385 21.4307 216.975 21.4307C217.565 21.4307 218.043 20.9524 218.043 20.3624C218.043 19.7724 217.565 19.2941 216.975 19.2941Z" fill="#E94E35"/>
<path d="M213.803 19.2941C213.213 19.2941 212.734 19.7724 212.734 20.3624C212.734 20.9524 213.213 21.4307 213.803 21.4307C214.393 21.4307 214.871 20.9524 214.871 20.3624C214.871 19.7724 214.393 19.2941 213.803 19.2941Z" fill="#E94E35"/>
<path d="M216.975 16.0566C216.385 16.0566 215.906 16.5349 215.906 17.125C215.906 17.715 216.385 18.1934 216.975 18.1934C217.565 18.1934 218.043 17.715 218.043 17.125C218.043 16.5349 217.565 16.0566 216.975 16.0566Z" fill="#E94E35"/>
<path d="M213.803 16.0566C213.213 16.0566 212.734 16.5349 212.734 17.125C212.734 17.715 213.213 18.1934 213.803 18.1934C214.393 18.1934 214.871 17.715 214.871 17.125C214.871 16.5349 214.393 16.0566 213.803 16.0566Z" fill="#E94E35"/>
<path d="M216.975 12.8805C216.385 12.8805 215.906 13.3588 215.906 13.9488C215.906 14.5388 216.385 15.0171 216.975 15.0171C217.565 15.0171 218.043 14.5388 218.043 13.9488C218.043 13.3588 217.565 12.8805 216.975 12.8805Z" fill="#E94E35"/>
<path d="M213.803 12.8805C213.213 12.8805 212.734 13.3588 212.734 13.9488C212.734 14.5388 213.213 15.0171 213.803 15.0171C214.393 15.0171 214.871 14.5388 214.871 13.9488C214.871 13.3588 214.393 12.8805 213.803 12.8805Z" fill="#E94E35"/>
<path d="M210.494 22.4664C209.904 22.4664 209.426 22.9447 209.426 23.5347C209.426 24.1247 209.904 24.603 210.494 24.603C211.084 24.603 211.563 24.1247 211.563 23.5347C211.563 22.9447 211.084 22.4664 210.494 22.4664Z" fill="#E94E35"/>
<path d="M210.494 19.2941C209.904 19.2941 209.426 19.7724 209.426 20.3624C209.426 20.9524 209.904 21.4307 210.494 21.4307C211.084 21.4307 211.563 20.9524 211.563 20.3624C211.563 19.7724 211.084 19.2941 210.494 19.2941Z" fill="#E94E35"/>
<path d="M210.494 16.0566C209.904 16.0566 209.426 16.5349 209.426 17.125C209.426 17.715 209.904 18.1934 210.494 18.1934C211.084 18.1934 211.563 17.715 211.563 17.125C211.563 16.5349 211.084 16.0566 210.494 16.0566Z" fill="#E94E35"/>
<path d="M216.975 9.57565C216.385 9.57565 215.906 10.054 215.906 10.644C215.906 11.2341 216.385 11.7124 216.975 11.7124C217.565 11.7124 218.043 11.2341 218.043 10.644C218.043 10.054 217.565 9.57565 216.975 9.57565Z" fill="#E94E35"/>
<path d="M207.317 19.2941C206.727 19.2941 206.249 19.7724 206.249 20.3624C206.249 20.9524 206.727 21.4307 207.317 21.4307C207.907 21.4307 208.386 20.9524 208.386 20.3624C208.386 19.7724 207.907 19.2941 207.317 19.2941Z" fill="#E94E35"/>
</svg>
